<svg xmlns="http://www.w3.org/2000/svg" width="500" height="500" viewBox="0 0 500 500"><defs><clipPath id="a"><circle cx="250" cy="250" r="170"/></clipPath></defs><rect width="500" height="500" fill="#181715" rx="115"/><g clip-path="url(#a)"><path fill="#ee9b2e" d="M80 80h170v340H80z"/><g fill="none" stroke="#465b5e" stroke-linecap="round"><path stroke-width="24" d="M286 372c-16-50 12-76 4-122-7-44 16-72 50-85"/><path stroke-width="22" d="M322 378c-16-52 10-78 0-126-9-42 14-72 44-84"/><path stroke-width="20" d="M356 366c-12-48 12-70 2-114-8-38 12-64 38-76"/><path stroke-width="18" d="M388 344c-10-38 10-58 1-94-7-28 7-50 25-60"/><path stroke-width="16" d="M300 372c-4-28 12-42 6-68"/></g></g><circle cx="250" cy="250" r="170" fill="none" stroke="#3f6d72" stroke-width="5"/></svg>