<svg xmlns="http://www.w3.org/2000/svg" width="500" height="500"><path fill="#181815" d="M122.312-.14c1.14 0 1.14 0 6.91-.02h7.54c1.32 0 1.32 0 7.98-.02 7.21-.01 14.43-.02 21.64-.02 4.51 0 9.03-.01 13.54-.01l42.42-.03c16.29 0 32.57-.02 48.86-.05 12.61-.02 25.22-.03 37.84-.03q11.28 0 22.56-.03c7.08-.01 14.17-.02 21.25-.01 3.81 0 7.62-.01 11.43-.02 36.64.08 68.79 9.14 95.51 35.13 30.33 30.7 34.35 66.56 34.37 108.09 0 2.59.01 5.18.01 7.85.02 7.09.02 14.17.03 21.26 0 4.43.01 8.87.01 13.3l.03 41.72c0 16 .02 32 .05 48 .02 12.41.03 24.81.03 37.21 0 7.4.01 14.79.03 22.18.02 8.26.01 16.51 0 24.77l.03 7.33c-.05 22.41-1.83 43.97-11.76 64.35-.46.98-.46.98-2.83 5.9-2.34 4.44-4.64 8.4-7.79 12.29h-2l-2 5c-5.1 6.37-10.75 11.77-17 17h-2l-1 3c-31.27 21.48-62.88 25.49-100.29 25.39-1.24 0-1.24 0-7.53.01-6.73.02-13.46.01-20.19 0-7.09 0-14.19 0-21.28.01-11.9 0-23.8 0-35.69-.02-13.71-.01-27.41-.01-41.11.01q-17.745.015-35.49 0c-7.04 0-14.07 0-21.11.01-7.85.01-15.7 0-23.54-.02-1.15 0-1.15 0-6.95.02-18.07-.07-35.82-1.3-53.13-6.78-1.84-.57-3.67-1.13-5.56-1.72-27.68-10.31-49.53-32.5-63.44-57.97-8.1-17.88-11.7-35.24-12-54.73-.05-2.61-.09-5.22-.13-7.91l-.12-8.6-.06-4.45c-.46-32.98-.54-65.95-.51-98.93 0-7.98 0-15.97-.01-23.95-.01-30.48.05-60.96.47-91.43.05-3.98.1-7.96.14-11.94.59-37.32 8.45-70.03 35.53-97 1.19-1.28 2.39-2.56 3.62-3.87C62.072 9.34 92.232-.09 122.312-.14"/><path fill="#151712" d="M356 122v2l4 2c6.36 4.86 11.02 10.77 16 17l3 3c3.43 4.6 6.7 9.31 10 14 1.05 1.44 2.1 2.89 3.19 4.38C413.57 199.54 419.71 245.1 411 285c-8.14 30.75-22.14 57.75-44 81h-2l-1 3c-6.57 6.19-13.8 11.57-21 17-1.2.91-2.39 1.81-3.62 2.75C302.51 413.33 259.13 419.56 216 413c-29.66-6.88-54.73-19.37-78-39-1.4-1.18-2.81-2.35-4.25-3.56C108.83 347.6 92.21 315.75 85 283c-.16-.69-.16-.69-.97-4.15-2.18-11.1-2.31-22.14-2.34-33.41-.01-1.56-.01-3.12-.02-4.72.08-12.56 2.41-23.38 5.83-35.47.61-2.16 1.22-4.32 1.84-6.55 1.14-3.92 2.37-7.82 3.66-11.7h2c.16-1.2.33-2.39.5-3.62 2.01-7.21 5.65-13.01 9.5-19.38.33-.59.33-.59 2.01-3.55 1.86-3.23 3.92-6.35 5.99-9.45h2l2-4c4-6 4-6 9-11l4.94-5.12C149.45 112.41 172.17 98.92 197 91c1.37-.45 2.74-.91 4.15-1.38C255.42 72.51 312.23 87.31 356 122"/><path fill="#e49027" d="m247 84 1 331c-41.97 0-78-14.01-110-41-1.4-1.18-2.81-2.35-4.25-3.56C108.83 347.6 92.21 315.75 85 283c-.16-.69-.16-.69-.97-4.15-2.18-11.1-2.31-22.14-2.34-33.41-.01-1.56-.01-3.12-.02-4.72.08-12.56 2.41-23.38 5.83-35.47.61-2.16 1.22-4.32 1.84-6.55 1.14-3.92 2.37-7.82 3.66-11.7h2c.16-1.2.33-2.39.5-3.62 2.01-7.21 5.65-13.01 9.5-19.38.33-.59.33-.59 2.01-3.55 1.86-3.23 3.92-6.35 5.99-9.45h2l2-4c4-6 4-6 9-11l4.94-5.12C149.44 112.42 172.17 98.9 197 91c1.45-.47 2.9-.93 4.4-1.41C217.14 84.74 230.13 84 247 84"/><path fill="#384644" d="M234 83c46.11-1.24 85.7 10.23 122 39v2l4 2c6.36 4.86 11.02 10.77 16 17l3 3c3.43 4.6 6.7 9.31 10 14 1.05 1.44 2.1 2.89 3.19 4.38C413.57 199.54 419.71 245.1 411 285c-8.14 30.75-22.14 57.75-44 81h-2l-1 3c-6.57 6.19-13.8 11.57-21 17-1.2.91-2.39 1.81-3.62 2.75C312.2 406.87 280.46 415.98 248 415c-1.22-6.1-1.12-11.75-1.12-17.98v-4.04c0-4.49 0-8.98.01-13.47v-9.64c0-8.74 0-17.47.01-26.21 0-9.12.01-18.24.01-27.37 0-17.28.01-34.56.02-51.84.01-19.68.01-39.35.02-59.02.01-40.48.03-80.95.05-121.43h-13zm14 6v320c40.17 0 75.91-13.16 106-40 1.38-1.15 2.76-2.31 4.19-3.5 31.18-28.63 48.17-69.07 50.11-111.06.27-24.35-3.3-48.44-14.3-70.44l-3-1c-7.23 3.62-10.83 7.8-16 14-.91 5.46-1.24 10.54-1.44 16.06-1.16 24.28-1.16 24.28-9.56 32.94-11.29 9.25-21.67 13-36 15l-1 2c11.82 5.04 26 6.76 38.14 1.97 1.28-.65 2.55-1.3 3.86-1.97v-2l5-2c7.39-8.1 11.85-15.25 14-26-.78 15.02-6.28 28.28-17 39-14.55 11-30.85 11.5-48.4 13.21-7.29.87-13.68 2.4-20.6 4.79v2l-6 1-2 1v2l-6 2c-7.8 5.99-7.8 5.99-9 12h-2v2h-2c-3.18 6.28-6.23 12.53-9 19-4 5-4 5-10 8 .02-6.31.1-12.62.19-18.94 0-.88 0-.88.02-5.35.25-15.63 2.16-33.08 13.79-44.71v-2l4-2 5-5c5-4 5-4 10-6v-2c1.38-.1 2.75-.21 4.17-.32 6.51-.76 12.7-2.12 19.08-3.62 2.25-.52 4.51-1.05 6.83-1.59C333.03 244 344.93 239.39 354 228l4-5c1.63-5.4 2.1-10.35 2.5-16 .78-10.9 2.08-16.73 9.5-25 5.43-4.7 11.23-6.74 18-9-2.7-6.74-5.2-11.47-10-17-8.73-1.93-17.89-.72-26 3-6 4-6 4-11 10v3h-2c-2.36 8.24-2.38 15.71-2.56 24.24-.43 5.69-1.62 10.37-3.44 15.76-.16.66-.16.66-1 4h-2l-3 5-2 1v2l-4 2-5.19 3.44c-5.03 3.08-9.18 4.98-14.81 6.56l-3 1v2c-1.44.23-2.89.45-4.38.69-14.08 3.28-23.5 11.44-32.62 22.31-1.37 2.31-2.71 4.64-4 7-.12-8.45-.21-16.91-.27-25.36-.03-2.88-.06-5.75-.11-8.63-.06-4.13-.09-8.26-.11-12.4-.02-2.48-.05-4.97-.08-7.53C257 209 257 209 262 204v-2c1.61-.47 3.22-.95 4.88-1.44C272 199 272 199 274 198c6.24-.16 12.48-.25 18.72-.33 6.52-.7 9.97-1.91 15.28-5.67 6.2-8.56 9.15-15.42 9.5-25.94.2-5.98.82-10.18 2.5-16.06h2l2-5 2-1v-2l4-1c1.55-.8 3.09-1.61 4.69-2.44 7.91-3.21 14.81-3.81 23.31-4.56-13.93-13.93-13.93-13.93-23.5-14.25-12.57.09-20.47 3.22-29.5 12.25-3 4-3 4-3 6h-2c-.25 2.43-.5 4.87-.75 7.38-1.3 10.47-4.23 20.98-12.25 28.24-9 6.08-19.16 9.38-30 9.38.73-.33.73-.33 4.44-2 5.71-3.08 9.95-6.46 14.56-11v-2h2c5.72-7.15 7.09-12.29 7.44-21.31.42-9.79 2.36-16.94 8.56-24.69 11.19-7.61 21.86-8.45 35-10-16.42-16.42-48.06-20.79-70-23z"/><path fill="#323f3e" d="M368 288c1 4 1 4-1 8h-2l-2 4c-9.88 10.11-17.66 14.82-32.06 15.5-10.75.68-18.25 2.81-25.94 10.5-.17.33-.17.33-1 2h-2c-.58 2.35-1.15 4.7-1.75 7.12-6.5 25.89-6.5 25.89-13.25 34.88h-2v2c-7.74 5.67-19.09 14-29 14v-33l11-3c7.47-4.95 7.47-4.95 9-8h2l1-5.12c2.97-10.22 7.4-18.28 15-25.88 12.69-6.74 22.09-9.31 36.31-9.56 15.57-.32 15.57-.32 16.69-1.44 1.15-.17 1.15-.17 7-1 5.03-3.39 9.71-6.71 14-11"/><path fill="#c38b46" d="m247 84 1 331c-29 0-29 0-35-4 5.28.16 5.28.16 32 1-.19-3.96-.37-7.92-.56-12-.41-8.69-.38-17.19.05-25.88.57-13.1.61-26.16.56-39.27l-.03-14.9c0-2.5-.01-4.99-.01-7.57-.01-11.31.03-22.62.08-33.93l.03-6.63c.03-6.81.07-13.61.1-20.41.02-4.86.04-9.71.07-14.56.05-12.56.11-25.12.17-37.68l.18-38.7L246 85l-5 1c-4.78.27-9.55.44-14.34.62-10.04.82-21.03 4.2-29.66 9.38-3.66.12-7.34.13-11 0 16.16-12.12 42.1-12 61-12"/><path fill="#cf9447" d="m98 177 2 1c-1 5-1 5-4 10-3 9.89-3 9.89-3 15l-3 3c-.64 3.08-1.14 6.19-1.56 9.31-.77 5.6-1.64 10.3-3.44 15.69-1.77 20.19-2.32 45.36 7 64 .6 2.56 1.2 5.12 1.81 7.75 1.53 6.33 3.54 10.82 7.19 16.25 1.09 3.31 2.11 6.64 3 10l5 1 1 9h2v3h2l1 3 2 1 2 6h2c2.06 2.28 4.05 4.63 6 7 5 6 5 6 7 8h-4c-3.25-3.38-3.25-3.38-7-8-1.28-1.55-2.56-3.09-3.88-4.69C102.5 332.9 90.85 309.57 85 283c-.16-.69-.16-.69-.97-4.15-2.18-11.1-2.31-22.14-2.34-33.41-.01-1.56-.01-3.12-.02-4.72.08-12.56 2.41-23.38 5.83-35.47.61-2.16 1.22-4.32 1.84-6.55 1.14-3.92 2.37-7.82 3.66-11.7h2l.94-4.44C97 178 97 178 98 177"/><path fill="#754e23" d="m247 84 4 1-1 2 4 2h-6v321h-1z"/><path fill="#c18944" d="M144 378c8 2 8 2 13 7l6 3v2c.82.17.82.17 5 1v2l4 1 7 3v2l7 1 6 3 10 3 3 2c3.66.4 7.33.74 11 1-6 3-10.3 1.5-16.59-.35-48.57-16.97-48.57-16.97-55.41-30.65"/><path fill="#c98f44" d="m155 111 2 1-10 10h-3l-1 4-6 4-5 5c-1.32 1.09-2.64 2.19-4 3.31-3.94 3.64-6.39 7.04-9 11.69l-4-1c3.46-4.74 6.83-8.83 11-13l4.94-5.12c7.4-7.42 15.7-13.61 24.06-19.88"/></svg>